<?xml version="1.0" encoding="utf-8"?>
<!-- Generator: Adobe Illustrator 24.0.2, SVG Export Plug-In . SVG Version: 6.00 Build 0)  -->
<svg version="1.1" id="Layer_2_1_" xmlns="http://www.w3.org/2000/svg" xmlns:xlink="http://www.w3.org/1999/xlink" x="0px" y="0px"
	 viewBox="0 0 536.6 80" style="enable-background:new 0 0 536.6 80;" xml:space="preserve">
<style type="text/css">
	.st0{fill:#FFFFFF;}
</style>
<g>
	<path class="st0" d="M33.9,72.9c-2.3,0-4.4-0.6-6.4-1.7s-3.5-2.7-4.6-4.6c-1.2-2-1.7-4-1.7-6.4v-5h12v4.5c0,0.3,0.1,0.6,0.3,0.8
		c0.2,0.2,0.5,0.3,0.8,0.3h39.3c0.3,0,0.6-0.1,0.8-0.3c0.2-0.2,0.3-0.5,0.3-0.8V47.1c0-0.3-0.1-0.6-0.3-0.7
		c-0.2-0.2-0.5-0.2-0.8-0.2H33.9c-2.3,0-4.4-0.6-6.4-1.7s-3.5-2.7-4.6-4.6c-1.2-2-1.7-4-1.7-6.5V19.8c0-2.3,0.6-4.4,1.7-6.4
		c1.2-2,2.7-3.5,4.6-4.6s4-1.7,6.4-1.7h40.3c2.3,0,4.4,0.6,6.4,1.7c2,1.2,3.5,2.7,4.6,4.6s1.7,4,1.7,6.4v5H74.8v-4.5
		c0-0.3-0.1-0.6-0.3-0.8c-0.2-0.2-0.5-0.3-0.8-0.3H34.4c-0.3,0-0.6,0.1-0.8,0.3c-0.2,0.2-0.3,0.5-0.3,0.8v12.5
		c0,0.3,0.1,0.6,0.3,0.7c0.2,0.2,0.5,0.2,0.8,0.2h39.8c2.3,0,4.4,0.6,6.4,1.7c2,1.2,3.5,2.7,4.6,4.6c1.2,2,1.7,4,1.7,6.5v13.6
		c0,2.3-0.6,4.4-1.7,6.4c-1.2,2-2.7,3.5-4.6,4.6c-2,1.2-4,1.7-6.4,1.7H33.9z"/>
	<path class="st0" d="M104.8,72.9c-2.3,0-4.4-0.6-6.4-1.7c-2-1.2-3.5-2.7-4.6-4.6c-1.2-2-1.7-4-1.7-6.4v-7.5h12v6.9
		c0,0.3,0.1,0.6,0.3,0.8c0.2,0.2,0.5,0.3,0.8,0.3h39.3c0.3,0,0.6-0.1,0.8-0.3s0.3-0.5,0.3-0.8V7.1h12.1v53c0,2.3-0.6,4.4-1.7,6.4
		c-1.2,2-2.7,3.5-4.6,4.6c-2,1.2-4,1.7-6.4,1.7H104.8z"/>
	<path class="st0" d="M174.2,71.1c-2-1.2-3.5-2.7-4.6-4.6c-1.2-2-1.7-4-1.7-6.4v-53h12v52.4c0,0.3,0.1,0.6,0.3,0.8
		c0.2,0.2,0.5,0.3,0.8,0.3h39.3c0.3,0,0.6-0.1,0.8-0.3c0.2-0.2,0.3-0.5,0.3-0.8V7.1h12.1v53c0,2.3-0.6,4.4-1.7,6.4
		c-1.2,2-2.7,3.5-4.6,4.6c-2,1.2-4,1.7-6.4,1.7h-40.3C178.3,72.9,176.1,72.3,174.2,71.1z"/>
	<path class="st0" d="M267.1,72.9V19.3h-26.8V7.1H306v12.1h-26.7v53.6H267.1z"/>
</g>
</svg>
