<?xml version="1.0" encoding="utf-8"?>
<!-- Generator: Adobe Illustrator 24.0.2, SVG Export Plug-In . SVG Version: 6.00 Build 0)  -->
<svg version="1.1" xmlns="http://www.w3.org/2000/svg" xmlns:xlink="http://www.w3.org/1999/xlink" x="0px" y="0px"
	 viewBox="0 0 174 26" style="enable-background:new 0 0 174 26;" xml:space="preserve">
<style type="text/css">
	.st0{fill:#615DFF;}
	.st1{fill:#3DD9EB;}
</style>
<g id="Layer_1">
	<path class="st0" d="M20.1,26c2.8,0,5-2.3,4.5-5c-0.3-1.7-0.8-3.4-1.4-5c-1.3-3.2-3.1-6-5.4-8.4C15.4,5.2,12.7,3.3,9.6,2
		C8.1,1.3,6.6,0.8,5,0.5C2.3-0.1,0,2.2,0,5v16c0,2.8,2.2,5,5,5H20.1z"/>
	<g>
		<path class="st1" d="M13.7,26c-2.8,0-5-2.3-4.5-5c0.3-1.7,0.8-3.4,1.4-5c1.3-3.2,3.1-6,5.4-8.4c2.3-2.4,5.1-4.3,8.2-5.6
			c1.5-0.6,3.1-1.1,4.7-1.5c2.7-0.6,5,1.7,5,4.5v16c0,2.8-2.2,5-5,5H13.7z"/>
	</g>
</g>
<g id="Layer_2">
	<g>
		<path d="M62.7,21.2c-0.4-0.2-0.6-0.5-0.9-0.9c-0.2-0.4-0.3-0.8-0.3-1.2V7.3h1.6v11.8c0,0.2,0.1,0.4,0.2,0.5s0.3,0.2,0.5,0.2h9.4
			c0.2,0,0.4-0.1,0.5-0.2c0.2-0.2,0.2-0.3,0.2-0.5V7.3h1.6v11.8c0,0.4-0.1,0.8-0.3,1.2c-0.2,0.4-0.5,0.6-0.9,0.9
			c-0.4,0.2-0.8,0.3-1.2,0.3h-9.4C63.5,21.5,63.1,21.4,62.7,21.2z"/>
		<path d="M77.8,21.5V10.1h9.2c0.4,0,0.8,0.1,1.2,0.3c0.4,0.2,0.6,0.5,0.9,0.9c0.2,0.4,0.3,0.8,0.3,1.2v9h-1.6v-9
			c0-0.2-0.1-0.4-0.2-0.5c-0.2-0.2-0.3-0.2-0.5-0.2h-6.8c-0.2,0-0.4,0.1-0.5,0.2c-0.2,0.2-0.2,0.3-0.2,0.5v9H77.8z"/>
		<path d="M91.5,8V6.3h1.6V8H91.5z M91.5,21.5V10.1h1.6v11.4H91.5z"/>
		<path d="M95.6,21.5V7.3h2.2l5.9,7l5.9-7h2.2v14.1h-1.6V9.1l-6.5,7.7l-6.5-7.7v12.3H95.6z"/>
		<path d="M116.2,21.5c-0.4,0-0.8-0.1-1.2-0.3c-0.4-0.2-0.6-0.5-0.9-0.9c-0.2-0.4-0.3-0.8-0.3-1.2V15h10v-2.5c0-0.2-0.1-0.4-0.2-0.5
			c-0.2-0.2-0.3-0.2-0.5-0.2h-9.2v-1.6h9.2c0.4,0,0.8,0.1,1.2,0.3c0.4,0.2,0.6,0.5,0.9,0.9c0.2,0.4,0.3,0.8,0.3,1.2v9H116.2z
			 M116.2,19.9h7.6v-3.3h-8.4v2.5c0,0.2,0.1,0.4,0.2,0.5S115.9,19.9,116.2,19.9z"/>
		<path d="M127.4,26V10.1h9.2c0.4,0,0.8,0.1,1.2,0.3c0.4,0.2,0.6,0.5,0.9,0.9c0.2,0.4,0.3,0.8,0.3,1.2v6.6c0,0.4-0.1,0.8-0.3,1.2
			c-0.2,0.4-0.5,0.6-0.9,0.9c-0.4,0.2-0.8,0.3-1.2,0.3h-7.6V26H127.4z M129.8,19.9h6.8c0.2,0,0.4-0.1,0.5-0.2s0.2-0.3,0.2-0.5v-6.6
			c0-0.2-0.1-0.4-0.2-0.5c-0.2-0.2-0.3-0.2-0.5-0.2h-6.8c-0.2,0-0.4,0.1-0.5,0.2c-0.2,0.2-0.2,0.3-0.2,0.5v6.6
			c0,0.2,0.1,0.4,0.2,0.5S129.6,19.9,129.8,19.9z"/>
	</g>
</g>
</svg>
